<svg xmlns="http://www.w3.org/2000/svg" viewBox="0 0 150 150" width="150" height="150">
  <defs>
    <linearGradient id="bgGrad" x1="0%" y1="0%" x2="100%" y2="100%">
      <stop offset="0%" stop-color="#0f1523" />
      <stop offset="100%" stop-color="#0b0f19" />
    </linearGradient>
    <linearGradient id="odivonGrad" x1="0%" y1="0%" x2="100%" y2="100%">
      <stop offset="0%" stop-color="#9d84ff" />
      <stop offset="100%" stop-color="#8465ff" />
    </linearGradient>
  </defs>

  <!-- Squircle Background (exactly matching the user's icon) -->
  <rect width="150" height="150" rx="38" fill="url(#bgGrad)" />

  <!-- Tilted "O" Glyph Centered -->
  <g transform="translate(75, 75) rotate(-26)">
    <path fill="url(#odivonGrad)" fill-rule="evenodd" clip-rule="evenodd"
          d="M 0,-50 C 30,-50 49,-27 49,0 C 49,27 30,50 0,50 C -30,50 -49,27 -49,0 C -49,-27 -30,-50 0,-50 Z
             M 0,-28 C 15,-28 24,-14 24,0 C 24,14 15,28 0,28 C -15,28 -24,14 -24,0 C -24,-14 -15,-28 0,-28 Z" />
  </g>
</svg>
